<?xml version="1.0" encoding="UTF-8"?>
<svg id="Layer_2" data-name="Layer 2" xmlns="http://www.w3.org/2000/svg" viewBox="0 0 195.39 156.77">
  <defs>
    <style>
      .cls-1 {
        fill: #fff;
      }

      .cls-2 {
        fill: #9a71f4;
      }

      .cls-3 {
        fill: #1c1c47;
      }

      .cls-4 {
        fill: #2e2865;
      }

      .cls-5 {
        fill: #391087;
      }

      .cls-6 {
        fill: #ffb700;
      }

      .cls-7 {
        fill: #e2209e;
      }

      .cls-8 {
        fill: #9364ed;
      }

      .cls-9 {
        fill: #242254;
      }

      .cls-10 {
        fill: #07cbf5;
      }

      .cls-11 {
        fill: #5e1dbb;
      }

      .cls-12 {
        fill: #4d18a0;
      }

      .cls-13 {
        fill: #fd8753;
      }

      .cls-14 {
        fill: #6426c6;
      }

      .cls-15 {
        fill: #1b1b44;
      }
    </style>
  </defs>
  <g id="Layer_1-2" data-name="Layer 1">
    <g>
      <g>
        <polygon class="cls-13" points="46.86 102.41 38.77 110.6 26.81 100.89 35.47 90.22 46.86 102.41"/>
        <path class="cls-7" d="M32.99,119.96c.98,.57,2.28,.22,2.94-.8,2.61-4.03,8.96-12.75,8.22-13.22-.94-.61-12.02-4.13-12.02-4.13,0,0,3.35-5.76-1.19-7.27-3.48-1.16-9.24,.15-11.73,.83-.79,.21-1.6,.19-2.35-.06-3.23-1.1-12.35-3.77-15.11,.26-3.38,4.93-1,5.65-.06,6.26,.81,.52,24.58,14.26,31.3,18.14Z"/>
        <rect class="cls-5" x="67.12" y="26.22" width="95" height="89.84" rx="8.04" ry="8.04"/>
        <rect class="cls-12" x="50.38" y="26.22" width="95" height="89.84" rx="8.04" ry="8.04"/>
        <path class="cls-13" d="M79.59,39.23c-.39,.7-8.73,4.11-5.47,9.78,6.17,10.74,10.72,2.06,10.72,2.06l-.43-8.99-4.82-2.85Z"/>
        <path class="cls-13" d="M85.88,50.67s.07-6.61-1.46-8.59c-1.53-1.98-4.44-2.85-5.84-2.06-2.41,1.36,2.36,4.06,2.36,4.06,0,0-2.05,6.56,.15,9.27s4.79-2.69,4.79-2.69Z"/>
        <path class="cls-3" d="M161.98,112.91v5.4c0,1.42-.09,2.8-.26,4.12-.88,6.68-3.85,11.61-7.38,11.61H68.28c-3.53,0-6.5-4.92-7.38-11.61-.17-1.32-.26-2.7-.26-4.12v-5.4c0-8.68,3.42-15.73,7.65-15.73h86.06c4.22,0,7.64,7.04,7.64,15.73Z"/>
        <path class="cls-6" d="M114.06,78.19s-35.64-10.91-48.41-10.91c-12.76,0-36.07,25.63-36.07,25.63l18.1,13.24,27.29-18.19,39.08-9.77Z"/>
        <path class="cls-9" d="M149.78,113.14v5.4c0,1.42-.09,2.8-.27,4.12-.9,6.68-3.94,11.61-7.56,11.61H53.8c-3.62,0-6.66-4.92-7.56-11.61-.18-1.32-.27-2.7-.27-4.12v-5.4c0-8.68,3.5-15.73,7.83-15.73h88.15c4.32,0,7.83,7.04,7.83,15.73Z"/>
        <path class="cls-2" d="M107.53,42.51s-11.84,9.64-12.58,9.27-7.05-4.79-7.05-4.79l-11.14,8.32s8.41,19.85,20.46,19.35c12.05-.5,16.01-13.41,16.01-13.41l-5.69-18.74Z"/>
        <path class="cls-1" d="M95.07,57.93s-.07,0-.11,0c-.33-.03-.61-.2-.8-.49-.89-1.36,.37-5.3,.52-5.74,.04-.11,.14-.19,.26-.19,.12,0,.23,.08,.26,.19,.16,.48,1.49,4.75,.56,5.9-.17,.22-.41,.33-.7,.33Zm-.12-5.17c-.39,1.42-.82,3.61-.32,4.38,.1,.15,.22,.22,.39,.24,.18,.01,.27-.05,.32-.12,.47-.59,.08-2.79-.39-4.5Z"/>
        <circle class="cls-12" cx="51.8" cy="95.73" r="15.06" transform="translate(-52.52 64.67) rotate(-45)"/>
        <path class="cls-4" d="M58.48,95.73c0,3.69-2.99,6.68-6.68,6.68s-6.68-2.99-6.68-6.68,2.99-6.68,6.68-6.68,6.68,2.99,6.68,6.68Z"/>
        <path class="cls-9" d="M61.85,148.99h-.63c-1.55,0-2.87-1.15-3.07-2.69l-2.21-16.37h9.72l-.71,16.09c-.07,1.66-1.44,2.97-3.1,2.97Z"/>
        <path class="cls-9" d="M80.89,148.99h-.63c-1.55,0-2.87-1.15-3.07-2.69l-2.21-16.37h9.72l-.71,16.09c-.07,1.66-1.44,2.97-3.1,2.97Z"/>
        <path class="cls-9" d="M134.34,148.99h.63c1.55,0,2.87-1.15,3.07-2.69l2.21-16.37h-9.72l.71,16.09c.07,1.66,1.44,2.97,3.1,2.97Z"/>
        <path class="cls-3" d="M153.58,147.86h.63c1.55,0,2.87-1.15,3.07-2.69l2.21-16.37h-9.72l.71,16.09c.07,1.66,1.44,2.97,3.1,2.97Z"/>
        <path class="cls-15" d="M128.61,102.73c0,2.35-10.92,4.26-24.39,4.26s-24.39-1.91-24.39-4.26,10.92-4.26,24.39-4.26,24.39,1.91,24.39,4.26Z"/>
        <polygon class="cls-13" points="79.5 132.21 78.39 143.66 62.98 143.66 62.98 129.92 79.5 132.21"/>
        <path class="cls-6" d="M132.66,80.23s1.59,16.21-2.87,18.29c-4.46,2.07-34.38,5.24-36.03,6.54-1.65,1.3-8.43,34.32-8.43,34.32l-27.81-7.26s6.18-40.06,13.32-44.47c5.36-3.31,35.73-9.06,35.73-9.06l26.09,1.64Z"/>
        <path class="cls-14" d="M93.41,105.5s-.1-.01-.14-.04c-.19-.12-4.66-2.84-5.07-5.12-.09-.51,.02-.96,.32-1.35,.37-.46,.77-.51,1.03-.46,1.82,.3,3.89,5.95,4.12,6.6,.04,.11,0,.23-.09,.31-.05,.04-.11,.06-.17,.06Zm-4.02-6.43c-.11,0-.26,.05-.43,.26-.21,.26-.28,.56-.21,.91,.28,1.53,2.85,3.43,4.11,4.29-.89-2.29-2.38-5.29-3.39-5.45-.02,0-.05,0-.07,0Z"/>
        <path class="cls-14" d="M73.19,84.87s-.05,0-.07-.01c-.45-.12-4.38-1.27-4.95-2.99-.15-.47-.05-.93,.29-1.37,.43-.54,.89-.61,1.22-.57,1.74,.21,3.56,4.1,3.76,4.55,.04,.1,.03,.21-.04,.3-.05,.06-.13,.1-.21,.1Zm-3.66-4.39c-.23,0-.44,.12-.63,.37-.23,.29-.29,.57-.2,.85,.34,1.05,2.61,1.99,3.97,2.44-.68-1.33-2.01-3.53-3.05-3.66-.03,0-.05,0-.08,0Z"/>
        <path class="cls-1" d="M127.84,24.9s2.7-.26,3.22,6.18c.52,6.45-.96,18.43-.96,18.43l-21.08-3.18,4.01-14.33,14.81-7.1Z"/>
        <path class="cls-2" d="M132.81,82.39s2.86-31.11,1.4-33.41c-4.53-7.11-19.55-10.28-26.68-6.48-4.46,2.38-3.06,10.58-4.91,24.03-1.04,7.57-5.41,8.12-5.41,8.12l35.6,7.74Z"/>
        <path class="cls-13" d="M115.14,37.89l-.02,.16-.26,3.09-.22,2.43s-.28,.53,2.55,.72c3.8,.23,5.22-1.23,5.22-1.23l.89-5.64-1.17,.07-7,.39Z"/>
        <path d="M115.12,38.05l-.26,3.09c1.86,.02,5.29-.34,7.01-3.05,.13-.22,.23-.42,.27-.59l-7,.5-.02,.05Z"/>
        <path class="cls-13" d="M115.84,23.17s-4.54,7.56-3.86,12.22c.68,4.67,4.87,4.49,7.44,3.94,2.57-.55,3.9-1.91,3.9-1.91,0,0,2.19,1.07,4-.86,1.81-1.93,1.18-4.5-.05-5.23-1.24-.73-2.91,.01-2.91,.01l1.52-2.17s-3.59-12.5-10.03-6Z"/>
        <rect class="cls-5" x="123.37" y="80.67" width="38.75" height="30.12"/>
        <circle class="cls-12" cx="123.37" cy="95.73" r="15.06" transform="translate(-27.4 55.08) rotate(-22.72)"/>
        <path class="cls-4" d="M130.06,95.73c0,3.69-2.99,6.68-6.68,6.68s-6.68-2.99-6.68-6.68,2.99-6.68,6.68-6.68,6.68,2.99,6.68,6.68Z"/>
        <path class="cls-1" d="M118.19,44.77c-2.5,0-4.3-.88-4.42-.94-.14-.07-.19-.24-.12-.37,.07-.14,.24-.19,.37-.12,.04,.02,4.09,2,8.42-.09,.13-.06,.3,0,.37,.13,.07,.14,0,.3-.13,.37-1.6,.77-3.14,1.02-4.49,1.02Z"/>
        <path d="M123.74,35.13c-.08,0-.16-.04-.21-.1-.1-.12-.08-.29,.04-.39l2.57-2.11c.12-.1,.29-.08,.39,.04,.1,.12,.08,.29-.04,.39l-2.57,2.11c-.05,.04-.11,.06-.18,.06Z"/>
        <path d="M126.34,34.78s-.03,0-.05,0l-1.78-.32c-.15-.03-.25-.17-.22-.32,.03-.15,.16-.25,.32-.22l1.78,.32c.15,.03,.25,.17,.22,.32-.02,.13-.14,.23-.27,.23Z"/>
        <path d="M120.36,27.63s-.06,0-.09-.02l-1.84-.64c-.14-.05-.22-.21-.17-.35,.05-.14,.21-.22,.35-.17l1.84,.64c.14,.05,.22,.21,.17,.35-.04,.11-.15,.19-.26,.19Z"/>
        <path d="M116.08,26.81s-1.43-.11-1.43-.11c-.15-.01-.27-.14-.26-.3,.01-.15,.15-.27,.3-.26l1.41,.11c.15,.01,.27,.14,.26,.3-.01,.15-.13,.26-.28,.26Z"/>
        <path d="M115.71,33.02c-.12,0-.23-.08-.27-.2-.53-1.87,.87-3.51,.93-3.58,.1-.12,.28-.13,.39-.03,.12,.1,.13,.27,.03,.39-.01,.01-1.26,1.49-.81,3.07,.04,.15-.04,.3-.19,.34-.02,0-.05,.01-.08,.01Z"/>
        <path class="cls-14" d="M67.34,92.82s-.09-.01-.13-.03c-.13-.07-.18-.24-.11-.38,.16-.3,4.06-7.48,7.49-9.01,3.71-1.67,18.59-6.58,18.74-6.63,.15-.05,.3,.03,.35,.18,.05,.15-.03,.3-.18,.35-.15,.05-15,4.95-18.69,6.61-3.25,1.46-7.19,8.7-7.22,8.77-.05,.09-.15,.15-.24,.15Z"/>
        <path class="cls-13" d="M83.4,41.24s-1.15-6.17-1.77-6.87c-.62-.7-4.46-2.38-5.38-1.54s2.9,3.62,2.9,3.62l.84,4.78h3.41Z"/>
        <path class="cls-13" d="M81.07,39.45s-4.29-.67-4.77,.65l-.48,1.32s-1.85-.82-2.49,1.5c-.64,2.32,.25,4.91,.25,4.91l5.51-2.3,1.97-6.08Z"/>
        <path d="M82.03,50.66s-.09-.01-.13-.03c-2.09-1.15-1.67-5.57-1.53-6.64-.51-.2-1.77-.83-2.49-2.27-.26-.52-.29-1-.09-1.45,.41-.93,1.69-1.29,1.74-1.3,.15-.04,.3,.05,.34,.19,.04,.15-.04,.3-.19,.34-.01,0-1.08,.31-1.38,.99-.13,.29-.1,.61,.08,.97,.8,1.59,2.36,2.06,2.38,2.07,.13,.04,.22,.17,.2,.31,0,.05-.77,5.2,1.22,6.3,.13,.07,.18,.24,.11,.38-.05,.09-.15,.14-.24,.14Z"/>
        <path d="M78.94,48.11c-.25,0-.53-.05-.83-.17-1.07-.41-1.82-2.56-2.03-3.21-.52-1.64-.79-3.68-.22-4.52,1-1.49,2.98-.95,3.06-.92,.15,.04,.23,.19,.19,.34-.04,.15-.19,.23-.34,.19-.07-.02-1.68-.45-2.46,.7-.39,.58-.26,2.28,.29,4.04,.48,1.53,1.15,2.65,1.7,2.86,1.21,.47,1.68-.47,1.73-.58,.06-.14,.22-.2,.37-.14,.14,.06,.2,.22,.14,.36-.18,.42-.71,1.04-1.6,1.04Z"/>
        <path d="M76.27,49.45c-.18,0-.37-.04-.56-.12-1.42-.6-2.55-3.63-2.61-5.94-.02-.75,.2-1.35,.64-1.8,.8-.8,2.03-.78,2.08-.78,.15,0,.27,.13,.27,.28,0,.15-.13,.27-.28,.27,0,0-1.05-.01-1.68,.62-.33,.34-.49,.8-.48,1.39,.06,2.28,1.18,4.98,2.27,5.44,.98,.41,1.74-1.1,1.75-1.11,.07-.14,.24-.19,.37-.12,.14,.07,.19,.23,.12,.37-.29,.58-1,1.49-1.9,1.49Z"/>
        <path d="M116.85,36.17c-.84,0-1.46-.93-1.49-.97-.05-.07-.06-.17-.03-.25,.03-.08,.1-.15,.19-.17l2.63-.7c.1-.03,.2,0,.27,.07,.07,.07,.1,.17,.07,.26-.01,.06-.37,1.44-1.33,1.71-.11,.03-.21,.04-.32,.04Zm-.77-.97c.23,.23,.57,.49,.93,.39,.35-.1,.61-.5,.77-.84l-1.7,.45Z"/>
        <path class="cls-6" d="M145.79,5.93c-.67,2.52-3.25,4.03-5.78,3.37-2.52-.67-4.03-3.25-3.37-5.78,.67-2.52,3.25-4.03,5.78-3.37,2.52,.67,4.03,3.25,3.37,5.78Z"/>
        <rect class="cls-6" x="137.55" y="7.81" width="4.94" height="2.97" transform="translate(7 -35.4) rotate(14.77)"/>
        <path class="cls-14" d="M141.58,12.83s-.05,0-.07,0l-4.53-1.19c-.14-.04-.23-.17-.2-.31,.02-.14,.12-.26,.29-.23l2.05,.11-1.89-.5c-.15-.04-.24-.19-.2-.34,.04-.15,.19-.24,.34-.2l4.53,1.19c.14,.04,.23,.17,.2,.31-.02,.14-.12,.26-.29,.23l-2.05-.11,1.89,.5c.15,.04,.24,.19,.2,.34-.03,.12-.14,.21-.27,.21Z"/>
        <path class="cls-14" d="M139.56,11.31s-.04,0-.06,0c-.12-.03-.21-.14-.22-.26l-.17-6.78c0-.15,.12-.28,.27-.28,.16,0,.28,.12,.28,.27l.14,5.65,2.42-4.95c.07-.14,.23-.2,.37-.13,.14,.07,.19,.23,.13,.37l-2.92,5.97c-.05,.1-.14,.16-.25,.16Z"/>
        <g>
          <path class="cls-1" d="M134.55,29.81c-.09,0-.19-.05-.24-.14-.08-.13-.03-.3,.1-.38,0,0,.38-.22,.91-.71,.11-.1,.29-.09,.39,.02,.1,.11,.09,.29-.02,.39-.58,.53-.99,.77-1,.78-.04,.03-.09,.04-.14,.04Z"/>
          <path class="cls-1" d="M136.93,27.47c-.06,0-.11-.02-.16-.05-.12-.09-.15-.26-.06-.39,.4-.55,.77-1.15,1.08-1.79,.07-.14,.24-.19,.37-.12,.14,.07,.19,.23,.12,.37-.33,.67-.71,1.3-1.13,1.87-.05,.07-.14,.11-.22,.11Zm1.91-3.82s-.06,0-.08-.01c-.15-.05-.23-.2-.18-.35,.21-.65,.38-1.33,.51-2.04,.03-.15,.17-.24,.32-.22,.15,.03,.25,.17,.22,.32-.14,.73-.31,1.44-.53,2.11-.04,.12-.15,.19-.26,.19Zm.79-4.2c-.17-.01-.29-.14-.28-.3,.04-.51,.06-1.05,.06-1.59,0-.17,0-.35,0-.52,0-.15,.12-.28,.27-.28,.16,0,.28,.12,.28,.27,0,.18,0,.36,0,.53,0,.56-.02,1.11-.06,1.63-.01,.15-.13,.26-.28,.26Z"/>
          <path class="cls-1" d="M139.55,15.16c-.14,0-.26-.11-.28-.25-.04-.39-.09-.79-.15-1.2-.02-.15,.08-.29,.23-.31,.16-.03,.29,.08,.31,.23,.06,.42,.11,.82,.15,1.22,.02,.15-.09,.29-.25,.3,0,0-.02,0-.03,0Z"/>
        </g>
        <path d="M118.97,30.86s-.05,0-.07,0c-.15-.04-.24-.19-.2-.34l.34-1.34-.33-.76c-.06-.14,0-.3,.15-.36,.14-.06,.3,0,.36,.15l.36,.84c.02,.06,.03,.12,.01,.18l-.36,1.43c-.03,.12-.14,.21-.27,.21Z"/>
        <path d="M114.45,30.29s-.04,0-.07,0c-.15-.04-.24-.19-.2-.34l.41-1.6-.32-.66c-.07-.14,0-.3,.13-.37,.14-.07,.3,0,.37,.13l.36,.75c.03,.06,.03,.12,.02,.19l-.43,1.7c-.03,.12-.14,.21-.27,.21Z"/>
        <path class="cls-1" d="M102.26,69.54c-.19-.02-.29-.16-.28-.31,.04-.34,1.35-5.7,1.6-6.74-.26-.45-1.15-2.29-.76-5.7,.44-3.88,4.02-7.65,4.17-7.81,.11-.11,.28-.12,.39,0,.11,.11,.11,.28,0,.39-.04,.04-3.6,3.8-4.02,7.49-.42,3.67,.73,5.42,.74,5.43,.04,.06,.06,.15,.04,.22-.63,2.59-1.58,6.53-1.62,6.79-.02,.14-.14,.24-.28,.24Z"/>
        <path class="cls-7" d="M76.41,156.47c1.14-.01,2.07-.97,2.12-2.18,.2-4.8,1.23-15.53,.35-15.56-1.12-.05-12.45,2.55-12.45,2.55,0,0-.05-6.66-4.72-5.66-3.59,.77-7.87,4.83-9.67,6.68-.57,.59-1.28,.98-2.06,1.14-3.34,.69-12.55,3.03-12.88,7.91-.4,5.96,2.02,5.38,3.13,5.42,.96,.04,28.42-.22,36.18-.3Z"/>
        <path class="cls-13" d="M114.64,68.38s-3.15-2.06-4.67-3.14c-2.29-1.62-7.73-3.88-9.92-4.78-2.19-.9-8.69-.65-8.37,.34,.32,.99,5.71,2.3,5.71,2.3,0,0-5.67,1.7-5.4,2.72,.27,1.02,2.17,.92,2.17,.92,0,0-1.76,.47-.78,1.47,.98,1,7.08,.02,7.08,.02,0,0-3.74,2.38-3.1,3.14,.64,.77,5.28-.75,5.28-.75,0,0,2.48,4.85,5.89,3.91,3.4-.94,4.83-2.32,4.83-2.32l1.3-3.83Z"/>
        <path class="cls-2" d="M129.33,44.55s18.79,11.47,12.18,29.3c-4.88,13.17-33.2,4.07-33.2,4.07l2.99-13.39s12.97-1.59,14.31-2.08c2.59-.94,3.71-17.89,3.71-17.89Z"/>
        <path class="cls-1" d="M117.87,66.7c-.12,0-.23-.08-.27-.2-.04-.15,.04-.3,.19-.35,.05-.02,5.62-1.7,14.03-3.48,.15-.03,.3,.07,.33,.21,.03,.15-.06,.3-.21,.33-8.39,1.77-13.93,3.45-13.99,3.46-.03,0-.05,.01-.08,.01Z"/>
        <path class="cls-1" d="M125.09,64.8c-.08,0-.15-.03-.2-.09-.09-.09-.1-.24-.02-.34,.34-.49,3.34-4.81,5.08-4.23,.35,.12,.43,.36,.44,.49,.1,1.04-3.57,3.24-5.15,4.14-.04,.02-.09,.04-.14,.04Zm4.48-4.17c-.86,0-2.34,1.53-3.46,2.97,2.12-1.29,3.72-2.53,3.72-2.92,0,0-.03-.01-.07-.03-.06-.02-.12-.03-.19-.03Z"/>
        <path d="M94.25,67.01c-.12,0-.23-.08-.27-.2-.04-.15,.04-.3,.19-.34l6.59-1.88c.15-.04,.3,.04,.34,.19s-.04,.3-.19,.34l-6.59,1.88s-.05,.01-.08,.01Z"/>
        <path d="M97.45,63.42c-.12,0-.23-.08-.27-.2-.04-.15,.04-.3,.19-.34l2.37-.68c.15-.04,.3,.04,.34,.19s-.04,.3-.19,.34l-2.37,.68s-.05,.01-.08,.01Z"/>
        <g>
          <path class="cls-1" d="M94.33,72.5l-31.59-4.46-6.04-22.39,30.34,4.28c.76,.11,1.38,.67,1.58,1.43l5.7,21.14Z"/>
          <path class="cls-10" d="M91.58,72.12l-31.59-4.46-5.39-19.98c-.31-1.13,.62-2.23,1.75-2.07l29.19,4.12,6.04,22.39Z"/>
          <path class="cls-11" d="M104.52,76.66l-44.55-6.29c-.72-.1-1.23-.77-1.13-1.5,.11-.77,.78-1.27,1.5-1.17l44.55,6.29c.72,.1,1.23,.77,1.13,1.5-.11,.77-.78,1.27-1.5,1.17Z"/>
          <path class="cls-1" d="M75.51,59.08c-.19,1.33-1.38,2.26-2.67,2.08-1.28-.18-2.17-1.41-1.99-2.74,.19-1.33,1.38-2.26,2.67-2.08s2.17,1.41,1.99,2.74Z"/>
        </g>
        <path class="cls-1" d="M124.35,31.34l-1.43,1.4,1.05-2.73s-2.31-1.72-2.96-2.46l-.65-.74v-2.18l-.44,2.09s-1.86-.31-3-.5l-1.14-.19v-1.74l-.65,1.74-1.22-.39s2.09-6.36,7.67-5.23,6.27,4.49,6.27,4.49c0,0,1.61,.61,1.87,2.66,.26,2.05-1.3,5.79-1.3,5.79,0,0-.85-3.27-4.06-2.01Z"/>
      </g>
      <g>
        <path class="cls-1" d="M183.16,88.74c-3.87,7.78-10.25,12.48-14.25,10.49-4-1.99-4.11-9.91-.25-17.69,3.87-7.78,10.25-12.48,14.25-10.49,4,1.99,4.11,9.91,.25,17.69Z"/>
        <path class="cls-1" d="M141.85,88.18c7.57,4.26,11.94,10.88,9.74,14.77-2.19,3.9-10.11,3.6-17.68-.67-7.57-4.26-11.94-10.88-9.74-14.77,2.19-3.9,10.11-3.6,17.68,.67Z"/>
        <path class="cls-1" d="M140.27,119.64c-6.37-.96-11.14-4.4-10.64-7.67,.49-3.28,6.06-5.15,12.43-4.19,6.37,.96,11.14,4.4,10.64,7.67-.49,3.28-6.06,5.15-12.43,4.19Z"/>
        <path class="cls-1" d="M177.04,97.2c6.94-5.23,14.75-6.58,17.44-3.01,2.69,3.57-.75,10.7-7.69,15.94-6.94,5.23-14.75,6.58-17.44,3.01-2.69-3.57,.75-10.7,7.69-15.94Z"/>
        <path class="cls-8" d="M159.92,125.55c-.12,0-.23-.08-.27-.2-4.57-14.78-20.34-12.56-20.51-12.54-.15,.02-.3-.08-.32-.24-.02-.15,.08-.3,.24-.32,.17-.02,16.41-2.32,21.13,12.93,.05,.15-.04,.31-.19,.35-.03,0-.06,.01-.08,.01Z"/>
        <path class="cls-8" d="M161.24,124.44c-.13,0-.24-.09-.27-.22-4.22-18.09-20-28.36-20.16-28.46-.13-.08-.17-.26-.08-.39,.08-.13,.26-.17,.39-.09,.16,.1,16.13,10.49,20.4,28.81,.04,.15-.06,.3-.21,.34-.02,0-.04,0-.06,0Z"/>
        <path class="cls-8" d="M160.17,131.73c-.14,0-.26-.1-.28-.25-2.26-17.75,16.27-49.65,16.45-49.97,.08-.13,.25-.18,.39-.1,.13,.08,.18,.25,.1,.39-.19,.32-18.62,32.05-16.38,49.62,.02,.16-.09,.3-.24,.32-.01,0-.02,0-.04,0Z"/>
        <path class="cls-8" d="M162.03,123.14c-.19-.02-.3-.17-.28-.32,.02-.13,2.01-13.33,23.32-23.11,.15-.06,.31,0,.37,.14,.06,.14,0,.31-.14,.38-21,9.64-22.98,22.54-23,22.67-.02,.14-.14,.25-.28,.25Z"/>
        <path class="cls-4" d="M172.31,150.6h-17.92c-.97,0-1.78-.69-1.88-1.6l-2.74-26.1c-.11-1.04,.76-1.95,1.88-1.95h23.4c1.12,0,1.99,.9,1.88,1.95l-2.74,26.1c-.1,.91-.91,1.6-1.88,1.6Z"/>
        <path class="cls-11" d="M168.35,150.6h-17.92c-.97,0-1.78-.69-1.88-1.6l-2.74-26.1c-.11-1.04,.76-1.95,1.88-1.95h23.4c1.12,0,1.99,.9,1.88,1.95l-2.74,26.1c-.1,.91-.91,1.6-1.88,1.6Z"/>
      </g>
    </g>
  </g>
</svg>